<svg version="1.1" xmlns="http://www.w3.org/2000/svg" xmlns:xlink="http://www.w3.org/1999/xlink" width="48" height="48"><defs><linearGradient x1="14.67396" y1="14.67396" x2="53.57508" y2="53.57508" gradientUnits="userSpaceOnUse" id="color-1"><stop offset="0" stop-color="#000000" stop-opacity="0.3"></stop><stop offset="1" stop-color="#000000" stop-opacity="0"></stop></linearGradient><filter id="dropshadow-base"><feColorMatrix type="matrix" values="0 0 0 0 0  0 0 0 0 0  0 0 0 0 0  0 0 0 .8 0"></feColorMatrix> <feOffset dx="0" dy="1"></feOffset> <feGaussianBlur stdDeviation="1"></feGaussianBlur> <feComposite in="SourceGraphic"></feComposite></filter><filter id="dropshadow-banner" x="-10%" y="-10%" width="120%" height="130%"><feColorMatrix type="matrix" values="0 0 0 0 0  0 0 0 0 0  0 0 0 0 0  0 0 0 .4 0"></feColorMatrix> <feOffset dx="0" dy="1"></feOffset> <feGaussianBlur stdDeviation="0.5"></feGaussianBlur> <feComposite in="SourceGraphic"></feComposite></filter></defs><g fill="none" fill-rule="nonzero" stroke="none" stroke-width="none" stroke-linecap="butt" stroke-linejoin="miter" stroke-miterlimit="10" stroke-dasharray="" stroke-dashoffset="0" font-family="none" font-weight="none" font-size="none" text-anchor="none" style="mix-blend-mode: normal"><path d="M7,43c-1.10457,0 -2,-0.89543 -2,-2v-34c0,-1.10457 0.89543,-2 2,-2h34c1.10457,0 2,0.89543 2,2v34c0,1.10457 -0.89543,2 -2,2z" id="base 1 5" fill="#3b5998" stroke-width="1"></path><path d="M16.74641,14.67396h6.21736l2.07245,2.07245v-2.07245h6.21736c0.57252,0 1.09063,0.23185 1.46561,0.60684l10.2808,10.2808v15.43841c0,1.10457 -0.89543,2 -2,2h-15.43841l-10.2808,-10.2808c-0.37498,-0.37498 -0.60684,-0.8931 -0.60684,-1.46561v-6.21736l2.07245,0l-2.07245,-2.07245v-6.21736c0,-1.14503 0.92742,-2.07245 2.07245,-2.07245z" fill="url(#color-1)" stroke-width="1"></path><path d="M14.67396,16.74641v6.21736h5.18113l-1.03623,-4.14491l4.14491,1.03623v-5.18113h-6.21736c-1.14503,0 -2.07245,0.92742 -2.07245,2.07245zM19.85509,25.03623h-5.18113v6.21736c0,1.14503 0.92742,2.07245 2.07245,2.07245h6.21736v-5.18113l-4.14491,1.03623zM29.18113,29.18113l-4.14491,-1.03623v5.18113h6.21736c1.14503,0 2.07245,-0.92742 2.07245,-2.07245v-6.21736h-5.18113zM31.25359,14.67396h-6.21736v5.18113l4.14491,-1.03623l-1.03623,4.14491h5.18113v-6.21736c0,-1.14503 -0.92742,-2.07245 -2.07245,-2.07245z" fill="none" stroke-width="0"></path><path d="M16.74641,14.67396h6.21736v5.18113l-4.14491,-1.03623l1.03623,4.14491h-5.18113v-6.21736c0,-1.14503 0.92742,-2.07245 2.07245,-2.07245zM18.81887,29.18113l4.14491,-1.03623v5.18113h-6.21736c-1.14503,0 -2.07245,-0.92742 -2.07245,-2.07245v-6.21736h5.18113zM28.14491,25.03623h5.18113v6.21736c0,1.14503 -0.92742,2.07245 -2.07245,2.07245h-6.21736v-5.18113l4.14491,1.03623zM33.32604,16.74641v6.21736h-5.18113l1.03623,-4.14491l-4.14491,1.03623v-5.18113h6.21736c1.14503,0 2.07245,0.92742 2.07245,2.07245z" fill="#ffffff" stroke-width="0"></path><path d="M2,24c0,-12.15026 9.84974,-22 22,-22c12.15026,0 22,9.84974 22,22c0,12.15026 -9.84974,22 -22,22c-12.15026,0 -22,-9.84974 -22,-22z" id="base 1 1 1" fill="none" stroke-width="1"></path><g fill="#000000" stroke-width="1" font-family="Roboto, sans-serif" font-weight="400" font-size="14" text-anchor="start"></g><rect x="2" y="2" width="44" height="22" fill="none" stroke-width="1"></rect><path d="M2,24v-22h44v22z" fill="none" stroke-width="1"></path><path d="M2,24v-22h44v22z" fill="none" stroke-width="1"></path><path d="M2,24v-22h44v22z" fill="none" stroke-width="1"></path><path d="M2,24v-22h44v22z" fill="none" stroke-width="1"></path></g></svg>